<svg version="1.1" xmlns="http://www.w3.org/2000/svg" xmlns:xlink="http://www.w3.org/1999/xlink" width="330px" height="83px" >
	<defs>
		<style>
			path { fill: #ffffff; }
		</style>
		<filter id="dropShadow">
		    <feGaussianBlur in="SourceAlpha" stdDeviation="5 4" />
		    <feOffset dx="0" dy="0" />
		    <feMerge>
		        <feMergeNode />
		        <feMergeNode in="SourceGraphic" />
		    </feMerge>
	  	</filter>
	</defs>
	<g transform="translate(13,13)" filter="url(#dropShadow)">
		<path d="M4.083,38.357c3.747,5.396,9.601,9.211,16.371,10.258H0V38.357H4.083L4.083,38.357z M24.381,38.357v10.258h-0.312V38.357
			H24.381L24.381,38.357z M48.451,38.357v10.258H27.998c6.769-1.047,12.623-4.861,16.369-10.25L48.451,38.357L48.451,38.357z
			 M68.77,38.357v9.164h4.649c5.087,0,8.506-2.98,8.506-8.479c0-0.234-0.006-0.465-0.019-0.689l1.232,0.004
			c0.011,0.229,0.017,0.455,0.017,0.686c0,6.1-3.856,9.572-9.544,9.572h-6.017V38.357H68.77L68.77,38.357z M87.375,38.357
			c-0.026,0.188-0.052,0.303-0.052,0.303c0.037-0.104,0.075-0.207,0.115-0.309l1.008,0.006c-0.25,0.463-0.451,0.963-0.604,1.479
			c-0.301,0.959-0.41,1.969-0.41,2.871v5.908h-1.149V38.357H87.375L87.375,38.357z M95.454,38.357v10.258h-1.149V38.357H95.454
			L95.454,38.357z M99.719,38.357l2.869,7.305c0.247,0.656,0.465,1.475,0.465,1.475c0.055,0,0.274-0.818,0.52-1.475l2.869-7.305
			h1.207l-4.021,10.258h-1.094l-4.041-10.258H99.719L99.719,38.357z M111.293,38.357c-0.343,0.613-0.593,1.336-0.72,2.162h9.736
			c-0.034-0.83-0.184-1.547-0.423-2.154l1.24-0.008c0.257,0.775,0.386,1.619,0.386,2.49c0,0.301-0.055,0.738-0.055,0.738h-10.967
			c0,3.967,2.681,6.236,5.853,6.236c2.626,0,4.239-1.723,4.239-1.723l0.629,0.957c0,0-1.914,1.887-4.868,1.887
			c-3.856,0-7.056-2.791-7.056-7.139c0-1.316,0.255-2.469,0.702-3.441L111.293,38.357L111.293,38.357z M125.247,38.357
			c-0.013,0.072-0.021,0.111-0.021,0.111c0.014-0.033,0.028-0.068,0.044-0.104l1.055-0.008c-0.34,0.521-0.603,1.102-0.771,1.725
			c-0.163,0.574-0.218,1.203-0.218,1.859v6.674h-1.149V38.357H125.247L125.247,38.357z M135.493,38.357
			c0.068,0.488,0.098,1.021,0.098,1.588v8.67h-1.148v-8.26c0-0.693-0.026-1.375-0.137-1.992L135.493,38.357L135.493,38.357z
			 M148.505,38.357c-0.434,0.889-0.689,2.031-0.689,3.447c0,3.037,1.558,6.018,4.758,6.018c2.681,0,4.868-2.215,4.868-6.043
			c0-1.328-0.254-2.482-0.709-3.416l1.326-0.006c0.383,0.99,0.586,2.146,0.586,3.422c0,4.348-2.543,7.164-6.126,7.164
			c-3.445,0-4.731-3.09-4.731-3.09c-0.054,0,0.056,0.492,0.056,1.203v1.559h-1.149V38.357H148.505L148.505,38.357z M161.605,38.357
			l3.099,7.496c0.274,0.656,0.493,1.283,0.493,1.283c0.055,0,0.246-0.627,0.52-1.283l3.1-7.496h1.221l-5.605,13.457
			c-0.602,1.422-1.751,2.543-3.474,2.543c-1.313,0-2.215-0.766-2.215-0.766l0.52-0.984c0,0,0.766,0.656,1.695,0.656
			c1.313,0,2.134-1.176,2.681-2.461l0.984-2.27l-4.237-10.176H161.605L161.605,38.357z M181.936,38.357
			c-0.002,0.031-0.002,0.057-0.002,0.084c0,2.488,7.11,1.941,7.11,6.482c0,2.297-1.969,4.02-5.005,4.02
			c-3.391,0-5.251-2.023-5.251-2.023l1.286-1.887c0,0,1.559,1.613,3.965,1.613c1.149,0,2.298-0.602,2.298-1.723
			c0-2.545-7.11-2.023-7.11-6.537c0-0.012,0-0.023,0-0.035L181.936,38.357L181.936,38.357z M193.829,38.357
			c-0.734,0.855-1.164,2.002-1.164,3.313c0,2.816,2.023,4.975,4.895,4.975c2.571,0,4.267-1.857,4.267-1.857l1.066,1.941
			c0,0-1.914,2.215-5.523,2.215c-4.349,0-7.412-3.09-7.412-7.248c0-1.217,0.271-2.352,0.764-3.342L193.829,38.357L193.829,38.357z
			 M207.192,38.357v10.258h-2.652V38.357H207.192L207.192,38.357z M212.739,38.357c-0.303,0.488-0.521,1.064-0.633,1.725h7.385
			c-0.023-0.672-0.158-1.246-0.38-1.725h2.686c0.266,0.793,0.4,1.66,0.4,2.572c0,0.355-0.081,1.148-0.081,1.148h-10.092
			c0.138,3.037,2.296,4.566,4.759,4.566c2.38,0,4.102-1.611,4.102-1.611l1.095,1.941c0,0-2.052,1.969-5.36,1.969
			c-4.35,0-7.329-3.145-7.329-7.248c0-1.246,0.238-2.367,0.67-3.334L212.739,38.357L212.739,38.357z M228.305,38.357
			c-0.478,0.531-0.84,1.184-1.051,1.916c-0.165,0.547-0.219,1.176-0.219,1.859v6.482h-2.652V38.357H228.305L228.305,38.357z
			 M236.816,38.357c0.062,0.43,0.092,0.896,0.092,1.396v8.861h-2.653v-8.26c0-0.748-0.061-1.436-0.263-1.998H236.816L236.816,38.357z
			 M242.707,38.357c-0.734,0.855-1.164,2.002-1.164,3.313c0,2.816,2.023,4.975,4.896,4.975c2.57,0,4.266-1.857,4.266-1.857
			l1.067,1.941c0,0-1.915,2.215-5.524,2.215c-4.349,0-7.412-3.09-7.412-7.248c0-1.217,0.271-2.352,0.764-3.342L242.707,38.357
			L242.707,38.357z M255.771,38.357c-0.303,0.488-0.521,1.064-0.633,1.725h7.385c-0.023-0.672-0.158-1.246-0.38-1.725h2.687
			c0.266,0.793,0.4,1.66,0.4,2.572c0,0.355-0.082,1.148-0.082,1.148h-10.092c0.138,3.037,2.297,4.566,4.759,4.566
			c2.38,0,4.102-1.611,4.102-1.611l1.095,1.941c0,0-2.052,1.969-5.36,1.969c-4.35,0-7.329-3.145-7.329-7.248
			c0-1.246,0.238-2.367,0.67-3.334L255.771,38.357L255.771,38.357z M267.356,45.799h2.79v2.816h-2.79V45.799L267.356,45.799z"/>
		<path d="M0,38.357V28.16c0.579,3.75,2.007,7.219,4.083,10.205L0,38.357L0,38.357z M24.069,38.357v-9.211h-6.402V19.63h3.202v6.057
			h2.508V19.63h0.692V0.164h0.312V19.63h2.456v9.517h-2.456v9.211H24.069L24.069,38.357z M44.367,38.357
			c2.076-2.979,3.504-6.447,4.083-10.197v10.197H44.367L44.367,38.357z M67.594,38.357v-8.887h6.017c5.472,0,9.248,3.24,9.527,8.891
			l-1.232-0.004c-0.277-5.037-3.619-7.791-8.487-7.791H68.77v7.791H67.594L67.594,38.357z M86.284,38.357v-3.416h1.149v2.598
			c0,0.324-0.029,0.613-0.057,0.814L86.284,38.357L86.284,38.357z M87.438,38.357c0.776-1.969,2.261-3.525,4.315-3.525
			c0.41,0,0.793,0.082,0.793,0.082v1.148c0,0-0.328-0.055-0.629-0.055c-1.59,0-2.739,1.002-3.471,2.352L87.438,38.357L87.438,38.357z
			 M94.305,38.357v-3.416h1.149v3.416H94.305L94.305,38.357z M98.492,38.357l-1.346-3.416h1.231l1.342,3.416H98.492L98.492,38.357z
			 M106.441,38.357l1.342-3.416h1.204l-1.34,3.416H106.441L106.441,38.357z M109.99,38.357c1.121-2.432,3.441-3.744,5.944-3.744
			c2.741,0,4.472,1.588,5.193,3.748l-1.24-0.004c-0.724-1.828-2.275-2.678-3.979-2.678c-1.867,0-3.627,0.902-4.613,2.674
			L109.99,38.357L109.99,38.357z M124.187,38.357v-3.416h1.149v2.406c0,0.451-0.057,0.834-0.089,1.012L124.187,38.357L124.187,38.357
			z M125.27,38.357c0.578-1.307,2.48-3.744,5.809-3.744c2.931,0,4.096,1.432,4.415,3.74l-1.188,0.004
			c-0.272-1.496-1.056-2.623-3.227-2.623c-1.94,0-3.709,1.027-4.754,2.625L125.27,38.357L125.27,38.357z M146.693,38.357v-8.887
			h1.149v7.111c0,0.629-0.109,1.121-0.109,1.121c0.054,0,1.23-3.09,5.004-3.09c2.563,0,4.431,1.43,5.321,3.74l-1.326,0.004
			c-0.812-1.658-2.262-2.623-4.049-2.623c-1.688,0-3.299,0.799-4.179,2.617L146.693,38.357L146.693,38.357z M160.386,38.357
			l-1.424-3.416h1.23l1.413,3.416H160.386L160.386,38.357z M168.816,38.357l1.413-3.416h1.23l-1.423,3.416H168.816L168.816,38.357z
			 M179.227,38.357c0.021-2.5,2.256-3.908,5.005-3.908c3.035,0,4.457,1.531,4.457,1.531l-1.066,1.996c0,0-1.23-1.23-3.418-1.23
			c-1.124,0-2.221,0.471-2.269,1.617L179.227,38.357L179.227,38.357z M190.721,38.357c1.169-2.354,3.591-3.908,6.648-3.908
			c3.473,0,5.196,2.023,5.196,2.023l-1.259,1.859c0,0-1.477-1.586-3.828-1.586c-1.506,0-2.787,0.605-3.649,1.609L190.721,38.357
			L190.721,38.357z M204.54,38.357v-3.58h2.652v3.58H204.54L204.54,38.357z M209.96,38.357c1.094-2.447,3.425-3.908,6.249-3.908
			c2.915,0,4.812,1.609,5.588,3.914l-2.686-0.006c-0.563-1.213-1.682-1.803-2.958-1.803c-1.434,0-2.676,0.633-3.414,1.809
			L209.96,38.357L209.96,38.357z M224.383,38.357v-3.58h2.57v1.832c0,0.547-0.055,1.012-0.055,1.012
			c0.601-1.203,2.243-3.172,5.251-3.172c2.792,0,4.296,1.309,4.667,3.908h-2.824c-0.322-0.896-1.002-1.475-2.363-1.475
			c-1.332,0-2.5,0.559-3.324,1.475H224.383L224.383,38.357z M239.599,38.357c1.169-2.354,3.591-3.908,6.648-3.908
			c3.474,0,5.196,2.023,5.196,2.023l-1.258,1.859c0,0-1.478-1.586-3.829-1.586c-1.506,0-2.788,0.605-3.649,1.609L239.599,38.357
			L239.599,38.357z M252.991,38.357c1.093-2.447,3.425-3.908,6.249-3.908c2.915,0,4.812,1.609,5.589,3.914l-2.687-0.006
			c-0.562-1.213-1.682-1.803-2.957-1.803c-1.434,0-2.677,0.633-3.415,1.809L252.991,38.357L252.991,38.357z M48.45,0.164
			l0.001,20.453C46.826,10.099,38.516,1.789,27.997,0.164H48.45L48.45,0.164z M20.452,0.164C9.934,1.789,1.624,10.099,0,20.617V0.164
			H20.452L20.452,0.164z M35.604,23.092h-4.153v2.596h4.153v3.46H27.99v-9.518h7.614V23.092L35.604,23.092z M42.785,23.092h-2.682
			v2.595h2.682V23.092L42.785,23.092z M45.986,29.146h-9.344V14.266h3.461v5.364h5.883V29.146L45.986,29.146z M67.594,0.164h1.176
			v19.144h-1.176V0.164L67.594,0.164z M72.779,5.633h1.148v2.407c0,0.629-0.109,1.121-0.109,1.121
			c0.52-1.285,2.434-3.856,5.853-3.856c3.555,0,4.512,2.106,4.512,5.333v8.669h-1.149v-8.259c0-2.379-0.3-4.622-3.363-4.622
			c-2.571,0-4.841,1.805-5.525,4.349c-0.164,0.574-0.219,1.203-0.219,1.859v6.673h-1.148V5.633L72.779,5.633z M86.978,16.792
			c0,0,1.532,1.723,4.239,1.723c1.669,0,3.145-0.875,3.145-2.571c0-3.473-7.521-2.488-7.521-6.946c0-2.434,2.052-3.692,4.376-3.692
			c2.79,0,4.047,1.477,4.047,1.477l-0.683,0.929c0,0-1.121-1.285-3.446-1.285c-1.559,0-3.09,0.711-3.09,2.489
			c0,3.555,7.521,2.489,7.521,7.028c0,2.188-1.86,3.692-4.376,3.692c-3.309,0-4.95-1.969-4.95-1.969L86.978,16.792L86.978,16.792z
			 M103.9,18.515c2.68,0,4.868-2.215,4.868-6.044c0-3.692-1.969-6.044-4.758-6.044c-2.517,0-4.868,1.778-4.868,6.072
			C99.143,15.533,100.837,18.515,103.9,18.515L103.9,18.515z M98.021,5.633h1.149v1.641c0,0.629-0.082,1.094-0.082,1.094
			c0.055,0,1.176-3.063,4.977-3.063c3.665,0,5.907,2.926,5.907,7.165c0,4.349-2.543,7.165-6.071,7.165
			c-3.555,0-4.786-3.09-4.786-3.09c-0.054,0,0.055,0.493,0.055,1.204v7.028h-1.149V5.633L98.021,5.633z M112.717,5.634h1.149v13.674
			h-1.149V5.634L112.717,5.634z M112.608,0.164h1.367V2.16h-1.367V0.164L112.608,0.164z M117.366,5.633h1.148v2.598
			c0,0.629-0.109,1.122-0.109,1.122c0.738-2.106,2.27-3.829,4.431-3.829c0.41,0,0.793,0.082,0.793,0.082v1.148
			c0,0-0.329-0.054-0.629-0.054c-2.133,0-3.473,1.805-4.075,3.828c-0.301,0.958-0.411,1.97-0.411,2.872v5.907h-1.148V5.633
			L117.366,5.633z M134.836,11.212c-0.137-3.336-2.134-4.84-4.403-4.84c-2.516,0-4.841,1.641-5.333,4.84H134.836L134.836,11.212z
			 M130.46,5.305c3.719,0,5.579,2.926,5.579,6.235c0,0.301-0.055,0.739-0.055,0.739h-10.967c0,3.965,2.681,6.236,5.853,6.236
			c2.626,0,4.239-1.724,4.239-1.724l0.629,0.958c0,0-1.914,1.887-4.868,1.887c-3.856,0-7.056-2.79-7.056-7.138
			C123.814,7.876,126.959,5.305,130.46,5.305L130.46,5.305z M143.835,18.515c2.516,0,4.868-1.778,4.868-6.072
			c0-3.035-1.559-6.017-4.757-6.017c-2.681,0-4.868,2.216-4.868,6.044C139.078,16.162,141.047,18.515,143.835,18.515L143.835,18.515z
			 M144,5.305c3.446,0,4.732,3.09,4.732,3.09c0.054,0-0.055-0.492-0.055-1.121v-7.11h1.147v19.143h-1.147v-1.723
			c0-0.628,0.108-1.039,0.108-1.039c-0.054,0-1.23,3.091-5.003,3.091c-3.665,0-5.908-2.927-5.908-7.166
			C137.874,8.122,140.417,5.305,144,5.305L144,5.305z M166.998,18.515c2.681,0,4.868-2.215,4.868-6.044
			c0-3.692-1.969-6.044-4.758-6.044c-2.517,0-4.868,1.777-4.868,6.071C162.24,15.534,163.799,18.515,166.998,18.515L166.998,18.515z
			 M161.118,0.164h1.149v7.111c0,0.629-0.109,1.121-0.109,1.121c0.055,0,1.23-3.091,5.004-3.091c3.665,0,5.907,2.927,5.907,7.166
			c0,4.348-2.543,7.165-6.126,7.165c-3.445,0-4.73-3.09-4.73-3.09c-0.055,0,0.055,0.492,0.055,1.203v1.559h-1.149V0.164
			L161.118,0.164z M173.688,23.301c0,0,0.766,0.656,1.696,0.656c1.312,0,2.133-1.176,2.68-2.461l0.985-2.27l-5.661-13.592h1.229
			l4.513,10.912c0.273,0.656,0.492,1.285,0.492,1.285c0.056,0,0.246-0.629,0.52-1.285l4.513-10.912h1.231l-7.029,16.874
			c-0.601,1.422-1.751,2.543-3.473,2.543c-1.313,0-2.216-0.766-2.216-0.766L173.688,23.301L173.688,23.301z M200.817,17.367
			c2.187,0,3.992-1.806,3.992-4.951c0-3.008-1.613-4.95-3.911-4.95c-2.078,0-3.992,1.45-3.992,4.978
			C196.906,14.905,198.273,17.367,200.817,17.367L200.817,17.367z M194.335,5.47h2.435v1.176c0,0.547-0.056,1.012-0.056,1.012
			c0.056,0,1.231-2.516,4.704-2.516c3.719,0,6.071,2.953,6.071,7.247c0,4.403-2.652,7.247-6.262,7.247
			c-3.036,0-4.239-2.269-4.239-2.269c-0.055,0,0,0.492,0,1.203v6.208h-2.653V5.47L194.335,5.47z M213.778,17.503
			c2.243,0,3.693-2.352,3.693-4.403v-0.438h-0.684c-1.997,0-5.607,0.137-5.607,2.626C211.181,16.409,212.056,17.503,213.778,17.503
			L213.778,17.503z M216.842,10.666h0.602V10.42c0-2.27-1.286-3.036-3.036-3.036c-2.133,0-3.855,1.34-3.855,1.34l-1.094-1.942
			c0,0,1.997-1.64,5.169-1.64c3.501,0,5.47,1.914,5.47,5.415v8.751h-2.462v-1.313c0-0.629,0.055-1.094,0.055-1.094
			c-0.055,0-1.176,2.735-4.484,2.735c-2.38,0-4.704-1.449-4.704-4.212C208.501,10.857,214.518,10.666,216.842,10.666L216.842,10.666z
			 M223.184,7.794h-1.805V5.661h1.887V1.668h2.571v3.993h3.336v2.133h-3.336v6.154c0,2.762,1.94,3.117,2.953,3.117
			c0.383,0,0.629-0.055,0.629-0.055v2.353c0,0-0.382,0.055-0.93,0.055c-1.777,0-5.306-0.547-5.306-5.169V7.794L223.184,7.794z
			 M230.967,5.47h2.653v13.838h-2.653V5.47L230.967,5.47z M230.939,0h2.68v2.708h-2.68V0L230.939,0z M245.918,10.775
			c-0.082-2.38-1.56-3.528-3.337-3.528c-2.023,0-3.664,1.258-4.047,3.528H245.918L245.918,10.775z M242.636,5.142
			c3.911,0,5.99,2.899,5.99,6.481c0,0.356-0.082,1.149-0.082,1.149h-10.092c0.137,3.036,2.297,4.567,4.758,4.567
			c2.38,0,4.103-1.613,4.103-1.613l1.095,1.942c0,0-2.052,1.969-5.36,1.969c-4.349,0-7.33-3.146-7.33-7.248
			C235.717,7.985,238.698,5.142,242.636,5.142L242.636,5.142z M250.811,5.47h2.57v1.832c0,0.547-0.055,1.012-0.055,1.012
			c0.601-1.203,2.242-3.172,5.252-3.172c3.253,0,4.758,1.778,4.758,5.305v8.861h-2.652v-8.259c0-1.942-0.411-3.473-2.627-3.473
			c-2.105,0-3.801,1.395-4.375,3.391c-0.164,0.547-0.219,1.176-0.219,1.86v6.481h-2.652V5.47L250.811,5.47z M266.422,7.794h-1.805
			V5.661h1.887V1.668h2.571v3.993h3.337v2.133h-3.337v6.154c0,2.762,1.942,3.117,2.953,3.117c0.384,0,0.63-0.055,0.63-0.055v2.353
			c0,0-0.383,0.055-0.93,0.055c-1.778,0-5.307-0.547-5.307-5.169V7.794L266.422,7.794z M274.897,15.725c0,0,1.559,1.614,3.965,1.614
			c1.149,0,2.298-0.602,2.298-1.723c0-2.544-7.11-2.024-7.11-6.537c0-2.515,2.243-3.938,5.005-3.938c3.035,0,4.457,1.532,4.457,1.532
			l-1.066,1.996c0,0-1.229-1.23-3.418-1.23c-1.149,0-2.271,0.492-2.271,1.695c0,2.489,7.11,1.942,7.11,6.482
			c0,2.297-1.969,4.02-5.005,4.02c-3.391,0-5.251-2.024-5.251-2.024L274.897,15.725L274.897,15.725z M286.199,16.491h2.79v2.817
			h-2.79V16.491L286.199,16.491z M94.195,29.471h1.367v1.996h-1.367V29.471L94.195,29.471z M204.512,29.307h2.68v2.707h-2.68V29.307
			L204.512,29.307z"/>
	</g>
</svg>
